<?xml version="1.0" standalone="no"?>
<!DOCTYPE svg PUBLIC "-//W3C//DTD SVG 20010904//EN"
 "http://www.w3.org/TR/2001/REC-SVG-20010904/DTD/svg10.dtd">
<svg version="1.0" xmlns="http://www.w3.org/2000/svg"
 width="470.000000pt" height="400.000000pt" viewBox="0 0 470.000000 400.000000"
 preserveAspectRatio="xMidYMid meet">

<g transform="translate(0.000000,400.000000) scale(0.100000,-0.100000)"
fill="#000000" stroke="none">
<path d="M3311 3929 c-359 -43 -693 -260 -909 -591 l-50 -78 -55 83 c-240 360
-592 569 -983 584 l-130 5 -37 -74 c-86 -174 -121 -324 -121 -528 0 -211 38
-381 129 -576 l42 -91 -111 -6 c-328 -18 -659 -170 -871 -399 -59 -64 -185
-240 -185 -258 0 -4 26 -47 59 -96 233 -354 639 -564 1090 -564 236 0 428 43
626 139 206 101 377 250 494 431 l57 88 24 -46 c42 -80 140 -204 228 -289 l84
-81 8 -630 c4 -347 11 -635 14 -641 14 -22 131 -95 230 -142 125 -60 258 -96
400 -109 158 -15 155 -17 209 98 48 102 77 188 99 287 17 82 17 370 -1 460
-19 98 -74 262 -115 345 l-34 70 81 0 c315 0 663 145 887 370 84 84 200 241
200 270 0 26 -94 170 -159 244 -228 261 -607 436 -942 436 l-78 0 54 113 c176
367 179 787 7 1112 l-37 70 -65 1 c-36 1 -98 -2 -139 -7z"/>
</g>
</svg>
